<?xml version="1.0" standalone="no"?>
<!DOCTYPE svg PUBLIC "-//W3C//DTD SVG 20010904//EN"
 "http://www.w3.org/TR/2001/REC-SVG-20010904/DTD/svg10.dtd">
<svg version="1.0" xmlns="http://www.w3.org/2000/svg"
 width="300.000000pt" height="300.000000pt" viewBox="0 0 300.000000 300.000000"
 preserveAspectRatio="xMidYMid meet">
<metadata>
Created by potrace 1.10, written by Peter Selinger 2001-2011
</metadata>
<g transform="translate(0.000000,300.000000) scale(0.100000,-0.100000)"
fill="#000000" stroke="none">
<path d="M716 2799 c-32 -26 -56 -69 -56 -104 0 -23 -3 -25 -22 -19 -40 13
-62 6 -93 -30 -19 -23 -39 -36 -53 -36 -36 0 -88 -28 -102 -55 -10 -18 -13
-75 -14 -201 l0 -177 37 -33 c27 -25 46 -34 71 -34 22 0 36 -6 40 -16 3 -9 6
-88 6 -177 0 -183 8 -214 69 -254 33 -23 40 -23 312 -23 l277 0 32 26 c28 24
31 31 25 64 l-6 37 108 5 c118 5 137 12 173 65 22 32 24 45 28 221 2 103 8
192 13 197 6 6 40 9 78 9 54 -1 82 -8 142 -36 74 -34 162 -110 174 -149 4 -11
10 -19 15 -19 10 0 66 -133 78 -188 11 -46 2 -53 -32 -27 -11 9 -41 15 -69 15
-40 0 -53 -5 -78 -29 l-29 -29 21 -49 c50 -116 76 -222 81 -328 2 -42 -1 -60
-9 -61 -7 -1 -128 -2 -269 -3 l-256 -1 -33 -33 c-20 -20 -36 -48 -40 -70 -7
-34 -9 -36 -48 -35 -32 0 -46 -5 -64 -26 l-23 -27 0 -440 c0 -476 -1 -467 55
-519 l27 -25 299 0 299 0 17 25 c10 14 20 36 23 50 l5 25 169 3 c266 5 269 8
264 268 l-3 163 -29 30 c-21 22 -39 31 -62 31 -18 0 -36 5 -40 11 -3 6 -8 117
-9 246 -3 231 -4 235 -29 273 l-25 37 82 59 c45 32 102 74 126 93 45 37 75 89
65 114 -9 23 -52 38 -95 31 l-39 -7 0 104 c0 57 -5 122 -11 144 -5 22 -15 58
-20 79 -15 61 -69 162 -119 224 -135 168 -312 237 -518 202 -40 -6 -76 -9 -80
-5 -4 4 -8 82 -8 175 -1 156 -3 170 -23 199 -43 61 -46 61 -429 61 -339 0
-350 -1 -376 -21z m743 -23 c46 -24 51 -50 51 -263 0 -182 1 -195 18 -188 203
85 407 42 556 -116 75 -79 125 -165 158 -269 19 -62 23 -96 22 -195 0 -66 -5
-137 -11 -157 -6 -21 -9 -38 -6 -38 3 0 22 14 43 30 30 24 48 30 84 30 25 0
46 -4 46 -9 0 -21 -209 -184 -287 -225 -38 -19 -113 -21 -135 -3 -10 8 -18 37
-22 82 -9 95 -41 217 -77 291 -16 34 -29 64 -29 67 0 13 108 19 130 7 12 -7
39 -47 62 -93 l39 -82 -5 105 c-7 168 -59 299 -160 407 -105 113 -260 167
-381 133 l-45 -13 0 -203 0 -202 -26 -31 -26 -31 -353 0 -354 0 -28 24 c-28
24 -28 24 -31 170 l-3 146 -25 0 -24 0 0 -184 c0 -101 3 -191 6 -200 5 -14 39
-16 278 -16 274 0 296 -3 296 -36 0 -7 -7 -20 -16 -28 -13 -14 -52 -16 -282
-15 -147 1 -278 4 -291 8 -13 3 -34 19 -45 34 -20 27 -21 41 -21 233 l0 204
-59 0 c-96 0 -96 1 -96 210 0 208 0 207 95 212 58 3 60 4 57 30 -2 18 4 31 19
42 32 22 59 5 59 -39 0 -31 3 -35 25 -35 24 0 25 2 25 76 0 73 1 77 34 110
l34 34 336 0 c272 0 342 -3 365 -14z m671 -1461 c16 -8 34 -24 40 -34 6 -12
10 -119 10 -275 l0 -256 53 0 c86 0 91 -11 95 -189 4 -165 -5 -212 -43 -229
-18 -8 -118 -12 -323 -12 -244 0 -302 3 -326 15 -19 10 -58 15 -122 15 -84 0
-96 2 -121 24 l-28 24 -3 432 -3 431 35 35 34 34 336 0 c281 0 342 -3 366 -15z
m-825 -137 c14 -20 15 -75 15 -445 -1 -233 2 -427 5 -433 4 -6 105 -10 274
-10 277 0 291 -2 291 -42 0 -35 -33 -39 -303 -37 -195 1 -270 5 -295 15 -60
24 -61 33 -61 509 -1 386 1 430 16 447 22 24 38 23 58 -4z"/>
<path d="M777 2703 c-4 -3 -7 -35 -7 -70 l0 -63 114 0 c120 0 137 -5 151 -50
6 -19 15 -20 155 -20 137 0 150 -2 160 -19 13 -25 13 -27 -6 -45 -13 -13 -42
-16 -160 -16 l-144 0 0 -40 0 -40 139 0 c114 0 143 -3 155 -16 9 -8 16 -21 16
-28 0 -31 -25 -36 -167 -36 l-143 0 0 -27 c0 -16 -5 -35 -10 -43 -8 -13 11
-16 142 -20 127 -4 153 -8 162 -22 8 -13 6 -22 -8 -37 -18 -20 -30 -21 -228
-21 -217 0 -248 5 -248 40 0 17 -7 20 -40 20 l-40 0 0 -130 0 -130 330 0 330
0 0 175 0 175 -25 -10 c-37 -14 -42 7 -6 28 l31 17 0 218 0 217 -323 0 c-178
0 -327 -3 -330 -7z m606 -33 c10 0 9 -170 -2 -170 -5 0 -17 8 -27 18 -15 14
-40 18 -148 20 l-131 3 -32 31 c-31 30 -38 32 -130 37 -86 5 -98 8 -101 25 -8
38 15 41 294 39 148 -1 272 -3 277 -3z m9 -280 c2 -22 -1 -48 -5 -57 -7 -11
-6 -14 2 -9 6 4 11 2 11 -3 0 -19 -16 -12 -53 22 l-35 34 32 26 c17 14 34 26
37 26 4 1 9 -17 11 -39z m-15 -186 c14 -21 17 -49 16 -144 0 -65 -4 -123 -7
-129 -8 -12 -531 -16 -560 -5 -22 8 -24 164 -2 164 7 0 19 -7 26 -15 10 -13
49 -15 235 -15 210 0 224 1 249 21 38 30 36 81 -4 111 -22 16 -27 24 -18 30
24 15 48 8 65 -18z"/>
<path d="M470 2365 l0 -85 31 0 c27 0 30 3 27 28 -3 24 0 27 32 30 38 3 60 24
60 57 0 37 -31 55 -93 55 l-57 0 0 -85z m98 28 c-2 -10 -13 -19 -26 -21 -17
-3 -22 2 -22 17 0 16 6 21 26 21 19 0 25 -5 22 -17z"/>
<path d="M650 2365 l0 -85 54 0 c74 0 106 25 106 83 0 23 -4 47 -8 53 -14 22
-51 34 -101 34 l-51 0 0 -85z m98 33 c27 -27 7 -78 -30 -78 -15 0 -18 8 -18
45 0 37 3 45 18 45 10 0 23 -5 30 -12z"/>
<path d="M840 2365 l0 -85 30 0 c27 0 30 3 30 30 0 28 3 30 35 30 28 0 35 4
35 20 0 16 -7 20 -35 20 -24 0 -35 5 -35 15 0 11 11 15 40 15 33 0 40 3 40 20
0 18 -7 20 -70 20 l-70 0 0 -85z"/>
<path d="M1447 1243 c-4 -3 -7 -188 -7 -410 l0 -403 80 0 81 0 -3 103 -3 102
-26 -3 c-31 -4 -52 18 -47 50 2 18 10 24 37 26 19 2 46 12 59 23 23 17 43 19
253 19 l229 0 0 250 0 250 -323 0 c-178 0 -327 -3 -330 -7z m614 -46 c4 -33 6
-153 2 -159 -2 -4 -18 2 -34 15 -29 21 -41 22 -245 25 l-215 3 -34 -34 c-39
-39 -38 -65 1 -96 13 -10 24 -22 24 -25 0 -3 -19 -25 -42 -48 -22 -22 -38 -36
-34 -30 3 6 3 13 -1 15 -5 3 -7 82 -5 175 l3 171 47 3 c26 2 156 2 290 0 181
-2 242 -6 243 -15z m-41 -172 c10 -12 10 -21 2 -40 l-12 -25 -223 0 c-160 0
-226 3 -235 12 -16 16 -15 55 1 61 6 3 112 6 233 6 187 1 224 -1 234 -14z m46
-119 c-1 -30 -4 -56 -6 -59 -3 -2 -23 17 -45 42 -22 24 -35 42 -30 39 6 -3 23
4 39 17 17 13 33 22 36 20 4 -3 6 -29 6 -59z m-62 -42 c9 -8 16 -21 16 -28 0
-33 -26 -36 -256 -34 l-229 3 -3 23 c-7 50 4 52 239 52 184 0 220 -2 233 -16z
m-481 -131 c-19 -13 -36 -23 -38 -23 -7 0 -6 106 1 112 3 4 20 -10 38 -30 l33
-36 -34 -23z m4 -119 c31 -23 33 -29 33 -83 0 -63 -13 -76 -60 -64 -18 5 -20
14 -20 89 0 46 3 84 7 84 3 0 21 -11 40 -26z"/>
<path d="M1680 546 l0 -86 59 0 c78 0 104 20 104 79 0 61 -26 83 -103 89 l-60
4 0 -86z m94 31 c25 -18 18 -67 -11 -78 -22 -8 -23 -6 -23 41 0 53 5 58 34 37z"/>
<path d="M1910 617 c-16 -8 -28 -26 -34 -49 -19 -74 33 -127 111 -112 42 8 63
37 63 87 0 71 -71 109 -140 74z m78 -39 c17 -17 15 -63 -3 -78 -19 -16 -52 -4
-58 21 -13 49 29 89 61 57z"/>
<path d="M2106 609 c-21 -16 -26 -29 -26 -64 0 -62 26 -90 84 -90 48 0 72 15
78 50 4 26 -30 28 -55 3 -22 -22 -31 -22 -46 -4 -17 20 -10 67 12 80 14 9 21
7 31 -6 14 -19 66 -25 66 -8 0 6 -11 22 -25 35 -30 31 -82 33 -119 4z"/>
</g>
</svg>
